Patient4_TMGait_0pt3_03_right_24_EMG.mot
version=1
nRows=20
nColumns=33
inDegrees=no
endheader
time	1LAddLong	2LGlutMax	3LGlutMed	4LIliopsoas	5LSemiMemb	6LBicFemLong	7LRecFem	8LVastMed	9LVastLat	10LGasMed	11LTibAnt	12lTibPost	13LPeroneusLong	14LSol	15LExtDigLong	16LFlexDigLong	17RAddLong	18RGlutMax	19RGlutMed	20RIliopsoas	21RSemiMemb	22RBicFemLong	23RRecFem	24RVastMed	25RVastLat	26RGasMed	27RTibAnt	28RTibPost	29RPeroneusLong	30RSol	31RExtDigLong	32RFlexDigLong
45.465	-0.003815	-0.14481	0.079803	0.013885	0.011292	-0.018768	0.00885	0.006256	0.040894	0.047607	-0.001526	-0.022888	-0.032043	-0.16876	-0.003357	0.088654	-0.002136	-0.007782	0.048065	-0.1651	-0.076294	0.013733	0.12344	-0.030975	-0.072327	-0.024872	0.14526	-0.006866	-1.4227	0.033875	0.000458	-0.011597
45.466	0.000916	-0.13748	0.093994	0.021515	0.007935	-0.020905	0.007935	0.00824	0.036011	0.011139	-0.007172	0.010071	-0.067902	-0.27435	-0.014801	-0.067291	-0.002136	-0.040894	0.34225	-0.019531	-0.025635	0.14221	0.059967	0.045013	-0.024261	-0.019684	0.19226	0.011139	0.4007	0.091858	0.000153	-0.013123
45.467	0	-0.15198	0.074005	0	0.007019	-0.012665	0.017395	0.010071	0.032806	-0.011902	0.014343	0.007324	-0.084076	-0.24902	-0.017548	-0.026855	0.003815	-0.083618	-0.036469	0.14801	0.059052	0.17929	0.093384	0.038605	0.003662	-0.002136	0.15625	0.008698	-0.67459	-0.040131	0.001221	-0.015411
45.468	0.000305	-0.15595	0.072784	0.023041	0.008392	-0.018768	0.02182	-0.003662	0.037384	-0.02121	0.01297	0.003662	-0.071259	-0.10422	0.01709	-0.020447	0.009308	-0.094757	-0.16281	0.27741	0.079651	0.19196	0.12955	0.02533	0.077209	0.001526	0.10269	0.007019	-1.2791	-0.14206	0.000763	-0.0177
45.469	-0.007935	-0.15243	0.056305	0.010834	0.004883	-0.024414	0.037384	0.000305	0.044556	-0.044556	0.003204	0.00824	-0.066986	-0.027771	0.007019	-0.24857	0.014343	-0.13473	0.072937	0.23148	0.22781	0.18249	0.060272	0.066986	0.15533	0.008698	-0.11749	-0.037231	0.3714	-0.16556	0.000153	-0.011902
45.47	-0.007324	-0.15579	0.065765	0.016632	0.009155	-0.021667	0.016632	0.006104	0.032654	-0.10529	0.000763	0.001221	0.001373	-0.069122	-0.002136	-0.10056	0.014954	-0.14832	0.37674	0.084839	0.18372	0.088806	0.046539	0.037231	0.14038	0.011749	-0.28412	-0.012665	0.87494	-0.16464	-0.004883	-0.007172
45.471	-0.003357	-0.15656	0.047607	0.003357	0.002441	-0.024872	0.03479	0.001831	0.035858	-0.14145	0.003967	-0.003204	0.10757	-0.037079	-0.019531	1.0066	0.006561	-0.10437	0.21683	0.027924	0.066528	-0.003815	0.094452	0.046539	0.085602	0.001373	-0.20065	0.054474	-0.44922	0.017242	-0.010986	-0.012665
45.472	0.000916	-0.14481	0.055847	0.004425	0.000305	-0.016022	0.028839	-0.001678	0.026245	-0.13107	0.009613	-0.009003	0.13168	0.086517	0.013275	-0.20126	0.023041	-0.053101	0.056152	-0.008392	0.030823	0.072632	-0.041046	-0.006409	0.038147	-0.011444	-0.18295	0.000153	0.31662	0.034485	0.005035	-0.009308
45.473	0.001526	-0.13275	0.039215	0.003357	0.005493	-0.007172	0.029907	0.005341	0.027771	-0.13001	0.000916	-0.025635	0.009155	0.31693	0.036163	-0.053711	0.048523	-0.072632	-0.18417	-0.00351	-0.056915	0.14572	-0.17899	-0.11261	0.031128	-0.011292	-0.025024	-0.004425	0.31006	0.075684	0.001984	-0.010376
45.474	0.004425	-0.09964	0.053864	0.013428	0.010071	-0.011444	0.025177	0.004578	0.031281	0.10834	0.01709	0.030365	-0.23636	-0.15793	0.022278	0.58701	0.06424	-0.001068	0.052795	0.014038	-0.25955	0.087738	-0.12695	-0.064087	0.028992	-0.012054	-0.017548	-0.012054	0.40375	0.090942	0.000305	-0.014191
45.475	0.014038	-0.098572	0.066833	0.016327	0.00351	-0.021362	0.028534	0.003052	0.034332	0.25284	0.015564	-0.011749	-0.18814	-0.28473	0.010071	0.015106	0.0383	-0.034637	0.23758	0.062103	-0.43427	-0.046844	-0.10849	0.052643	0.049896	-0.011597	-0.019379	-0.002441	1.5346	0.027466	0.006866	-0.012054
45.476	0.000153	-0.12589	0.092316	0.01358	0.007172	-0.015106	0.025177	-0.001068	0.031433	0.25146	-0.010376	0.059509	-0.14038	0.046082	-0.024719	0.11475	-0.008087	-0.16083	-0.233	0.080872	-0.32288	-0.16281	-0.14175	0.11108	0.073547	-0.018311	-0.092926	0.004425	0.72281	0.02594	0.00061	-0.004883
45.477	0.013123	-0.12161	0.078735	0.012817	0.000916	-0.006714	0.014648	0.005188	0.034485	0.16815	0.00351	-0.00351	-0.067291	0.03006	-0.053101	-0.83344	0.014648	-0.21347	-0.6398	0.002899	-0.005493	-0.15442	-0.015411	0.074158	0.075684	-0.027313	-0.21088	-0.005035	0.20569	0.1088	0.002136	-0.015259
45.478	0.005341	-0.11261	0.038147	0.007629	0.001678	0.002289	-0.003052	0.007019	0.040131	0.10635	0.007782	-0.076141	0.005035	-0.7486	-0.057678	0.23209	0.031433	-0.17151	0.049744	-0.074463	0.065918	-0.042114	0.034027	-0.027771	0.063934	-0.045319	-0.037231	-0.018768	0.085754	0.10529	0.003204	-0.011139
45.479	-0.000305	-0.082855	0.020142	0.008545	0.005188	-0.009613	-0.009155	0.006866	0.03952	0.042725	0.00351	0.075378	0.06897	-0.54092	-0.042114	0.27634	0.003357	-0.18463	0.2832	-0.18173	-0.067596	-0.028534	-0.020599	-0.051117	0.4364	-0.037842	0.019226	-0.011444	-0.36835	0.15045	-0.007324	-0.013123
45.48	0.003662	-0.079803	0.014343	0.011444	0.004578	-0.018768	0.001831	0.003052	0.046539	-0.041809	0.001068	-0.089569	0.084686	-0.20126	0.017853	0.078735	-0.005188	-0.17029	0.041046	-0.14862	0.10849	0.21225	-0.050354	-0.06134	0.62683	-0.048676	0.012665	0.002747	-0.041504	0.098877	-0.000305	-0.009613
45.481	0.005188	-0.031738	-0.020599	0.012207	0.005646	-0.005493	-0.005951	0.00473	0.045624	-0.083618	0.000153	0.075073	0.14206	-0.2063	0.039215	0.20966	0.006104	-0.12268	0.064545	0.006409	0.25299	0.39719	-0.080109	0.025787	0.625	-0.099335	-0.018921	-0.001221	-0.072479	0.063171	-0.001068	-0.007629
45.482	0.009613	-0.029755	-0.006104	0.016479	0.010681	-0.010529	0.001068	0.005646	0.03418	-0.063477	-0.014496	-0.083466	0.17319	-0.13107	0.031281	-0.17029	0.03006	-0.18051	-0.17471	0.17685	0.14358	0.31006	-0.10101	0.005951	0.43518	-0.010071	-0.054016	-0.003662	-0.063934	-0.014648	0.001984	-0.00885
45.483	0.009155	-0.05249	-0.002899	0.00351	0.006256	-0.010071	0.003967	0.002594	0.0354	0.009308	-0.003357	0.094299	0.014038	-0.1384	0.013123	-0.224	-0.026703	-0.24826	-0.1181	0.14557	-0.14221	0.21545	-0.10407	0.031281	0.23422	-0.052032	-0.019684	-0.002594	-0.077667	-0.056915	-0.003815	-0.007629
45.484	0.008545	-0.022888	0.025635	-0.001526	0.009155	0	0.005493	-0.00061	0.039368	-0.030365	0.004883	0.03479	-0.085297	-0.23346	-0.005493	-0.2002	-0.10895	-0.18265	-0.38681	0.072632	0.14679	0.015564	-0.121	0.14389	0.077667	-0.024872	0.023804	-0.006104	-0.1532	0.019226	-0.002441	-0.005951
